<svg height="90" viewBox="0 0 64 64" width="120" xmlns="http://www.w3.org/2000/svg"><g id="Filled_outline" data-name="Filled outline"><path d="m17 56c0 3-3 5-3 5s-3-2-3-5v-25h6z" fill="#ad6327"/><path d="m11 27h6v4h-6z" fill="#f3e451"/><path d="m17 27h-6l-2-10h10z" fill="#f9bb4b"/><path d="m32 56c0 3-3 5-3 5s-3-2-3-5v-25h6z" fill="#d3843d"/><path d="m26 27h6v4h-6z" fill="#f3e451"/><path d="m32 27h-6l-1-10h8z" fill="#f9bb4b"/><path d="m44 57a4.333 4.333 0 0 1 -2 4 4.333 4.333 0 0 1 -2-4v-26h4z" fill="#ad6327"/><path d="m40 27h4v4h-4z" fill="#f3e451"/><path d="m44 27h-4l-1-10h6z" fill="#f9bb4b"/><path d="m56 57a4.333 4.333 0 0 1 -2 4 4.333 4.333 0 0 1 -2-4v-26h4z" fill="#d3843d"/><path d="m52 27h4v4h-4z" fill="#f3e451"/><path d="m56 27h-4l-1-10h6z" fill="#f9bb4b"/><g fill="#ffd782"><path d="m19 17h-10l-1-6a5.536 5.536 0 0 1 3-6l3-2 3 2a5.536 5.536 0 0 1 3 6z"/><path d="m33 17h-8l-2-10h3c7 0 9 3 9 3z"/><path d="m45 17h-6l-1-10a4.333 4.333 0 0 1 4-2 4.333 4.333 0 0 1 4 2z"/><path d="m57 17h-6v-6a3.7 3.7 0 0 1 3-2 3.7 3.7 0 0 1 3 2z"/></g><path d="m14 62a1 1 0 0 0 .555-.168c.145-.094 3.445-2.332 3.445-5.832v-28.9l2.98-15.9a6.46 6.46 0 0 0 -3.425-7.028l-3-2a1 1 0 0 0 -1.11 0l-2.945 1.96a6.483 6.483 0 0 0 -3.49 7.033l2.99 15.935v28.9c0 3.495 3.305 5.738 3.445 5.832a1 1 0 0 0 .555.168zm2-32h-4v-2h4zm-6.153-14-.867-5.2c-.4-2 .518-3.794 2.575-4.972l2.445-1.628 2.5 1.666a4.531 4.531 0 0 1 2.51 4.967l-.857 5.167h-1.973l.806-4.835-1.972-.33-.861 5.165h-.306l-.861-5.165-1.972.33.806 4.835zm.373 2h7.56l-1.6 8h-4.361zm1.78 38v-1h2v-2h-2v-21h4v17h-2v2h2v5a5.35 5.35 0 0 1 -2 3.724 5.352 5.352 0 0 1 -2-3.724z"/><path d="m26 6h-3a1 1 0 0 0 -.98 1.2l1.99 9.95.99 9.9v28.95c0 3.495 3.305 5.738 3.445 5.832a1 1 0 0 0 1.11 0c.145-.094 3.445-2.332 3.445-5.832v-28.949l.986-9.861 1.976-6.915a1 1 0 0 0 -.13-.83c-.094-.14-2.383-3.445-9.832-3.445zm5 36h-2v2h2v12a5.35 5.35 0 0 1 -2 3.724 5.352 5.352 0 0 1 -2-3.724v-16h2v-2h-2v-6h4zm0-12h-4v-2h4zm.095-4h-4.19l-.8-8h5.795zm1.151-10h-1.769l1.452-3.628-1.858-.744-1.071 2.68-1.071-2.68-1.858.744 1.452 3.628h-1.7l-1.6-8h1.777c4.945 0 7.165 1.582 7.887 2.256z"/><path d="m39 57a5.317 5.317 0 0 0 2.553 4.9 1 1 0 0 0 .894 0 5.317 5.317 0 0 0 2.553-4.9v-29.949l1-9.951 1-10a1 1 0 0 0 -.1-.547 5.318 5.318 0 0 0 -4.9-2.553 5.318 5.318 0 0 0 -4.9 2.553 1 1 0 0 0 -.1.547l1 10 1 9.951zm4 0a3.755 3.755 0 0 1 -1 2.749 3.746 3.746 0 0 1 -1-2.749v-25h2zm0-27h-2v-2h2zm.095-4h-2.19l-.8-8h3.795zm-1.095-20a3.589 3.589 0 0 1 2.97 1.249l-.87 8.751h-4.19l-.88-8.75a3.588 3.588 0 0 1 2.97-1.25z"/><path d="m54 8a4.7 4.7 0 0 0 -3.9 2.553 1 1 0 0 0 -.1.447v6c0 .018 0 .083.005.1l.995 9.951v29.949a5.317 5.317 0 0 0 2.553 4.9 1 1 0 0 0 .894 0 5.317 5.317 0 0 0 2.553-4.9v-29.949l1-9.951c0-.017.005-.082.005-.1v-6a1 1 0 0 0 -.1-.447 4.7 4.7 0 0 0 -3.905-2.553zm1 49a3.755 3.755 0 0 1 -1 2.749 3.746 3.746 0 0 1 -1-2.749v-25h2zm0-27h-2v-2h2zm.095-4h-2.19l-.8-8h3.795zm.905-10h-4v-4.727a2.208 2.208 0 0 1 4 0z"/></g></svg>