<?xml version="1.0" encoding="UTF-8" standalone="no"?>
<svg
   xmlns:dc="http://purl.org/dc/elements/1.1/"
   xmlns:cc="http://creativecommons.org/ns#"
   xmlns:rdf="http://www.w3.org/1999/02/22-rdf-syntax-ns#"
   xmlns:svg="http://www.w3.org/2000/svg"
   xmlns="http://www.w3.org/2000/svg"
   viewBox="0 0 841.88977 595.27557"
   id="svg79"
   height="300"
   width="300"
   version="1.1">
  <metadata
     id="metadata85">
    <rdf:RDF>
      <cc:Work
         rdf:about="">
        <dc:format>image/svg+xml</dc:format>
        <dc:type
           rdf:resource="http://purl.org/dc/dcmitype/StillImage" />
      </cc:Work>
    </rdf:RDF>
  </metadata>
  <defs
     id="defs83" />
  <g
     id="Layer1000">
    <path
       id="path2"
       style="fill:#656565;fill-rule:evenodd"
       d="m 357.9194,328.803 c -1.3791,-5.6443 -0.4913,-83.7966 -0.4913,-96.6654 0,-31.9169 -3.7958,-38.0369 10.1625,-38.0829 13.8033,-0.0456 25.1274,3.0824 33.829,14.3122 28.2534,36.4609 18.3157,130.2023 -43.5002,120.4361 z m 95.5176,-52.0095 c -2.7884,9.7858 -5.5789,14.963 -9.5964,21.6816 -7.5866,10.4474 -8.4368,10.3094 -16.0912,18.01 26.2304,27.0207 87.924,41.4887 87.414,97.6518 -0.2132,23.4785 -13.3554,51.0347 -40.1706,49.5133 -6.5412,-0.371 -16.469,-4.0155 -21.4948,-8.3548 -26.9025,-23.2271 7.8961,-71.9226 -37.8468,-112.1513 -6.6841,-5.8782 -12.1547,-6.8009 -18.5828,-11.0064 5.4947,-2.2799 10.2135,-2.4897 16.7434,-5.9185 5.8793,-3.0869 9.4178,-6.3008 14.356,-10.1542 14.675,-15.0282 21.9317,-27.0907 22.9629,-47.8948 1.1305,-22.7942 -6.7671,-29.6665 6.7989,-51.7646 24.6413,-40.1388 76.7002,-1.8 62.199,19.3374 -6.5447,2.6944 -10.5886,1.179 -17.4365,6.4511 -15.927,12.2624 -16.8347,35.8639 -0.6103,48.5306 10.5265,8.2182 25.9537,7.1492 36.4042,-0.7192 22.4609,-16.9121 16.892,-71.5498 -30.1853,-90.6321 -12.6221,-5.1163 -27.6998,-4.9147 -40.7151,-1.3898 -5.7938,1.5689 -11.8625,3.9753 -17.0139,7.0684 -4.7806,2.8701 -11.1948,8.5567 -15.2126,10.3417 -17.1771,-29.2023 -58.6055,-24.7882 -87.7142,-24.7882 -4.8178,0 -33.6985,-1.5088 -36.9706,1.5322 2.1325,4.3353 1.0372,0.2568 6.3913,2.8984 l -0.0167,250.1793 c -5.3476,2.4316 -4.2718,-1.4995 -6.4188,2.9222 2.9696,2.645 3.7434,1.5231 12.0135,1.4848 l 28.0012,-0.005 c 9.9394,0.009 10.3193,0.8567 13.2809,-1.4408 -2.5381,-5.1282 -5.7909,-0.1049 -6.4706,-8.9629 -0.3425,-4.4597 -0.0278,-10.4539 -0.0275,-15.0761 l 0.03,-91.3348 c 61.2442,-0.4737 44.4294,75.9416 51.0222,103.5536 5.8187,24.3686 26.0535,27.9952 47.4455,28.0046 9.7795,0.005 30.2142,11.1152 61.7731,-9.1537 33.3678,-21.4307 45.9607,-74.5664 19.8406,-105.9525 -23.4732,-28.2053 -67.091,-38.9103 -84.102,-72.4612 z" />
    <path
       id="path4"
       style="fill:#656565;fill-rule:evenodd"
       d="m 286.3814,441.4034 c -3.1283,-3.9878 -8.6252,-12.0481 -12.8253,-14.2362 2.9452,14.3436 44.4585,47.2388 58.2366,54.9023 56.6039,31.4841 123.3219,34.0234 179.625,1.8881 9.2769,-5.2948 25.7522,-15.6841 33.0046,-22.9895 7.274,-7.3276 23.9701,-21.5325 26.991,-30.6975 -5.0641,2.4086 -10.9378,10.2815 -14.7683,14.8751 -12.6864,15.2144 -31.138,26.6901 -47.0897,36.7812 -24.578,15.5475 -61.1305,22.4427 -89.9098,22.1763 -30.3035,-0.2806 -61.2519,-9.4147 -87.2581,-24.8256 -13.693,-8.1144 -36.7149,-26.0308 -46.006,-37.8742 z" />
    <path
       id="path6"
       style="fill:#2e2e2e;fill-rule:evenodd"
       d="m 305.9067,154.1812 c 3.5879,-2.6161 3.1312,-3.9487 6.7853,-1.0066 -0.2775,3.6437 0.241,2.8012 -3.1697,4.7696 z m -1.0241,-2.8273 c -2.1563,-0.2616 -2.844,-1.648 -3.0147,-3.9262 1.5194,-1.6889 2.5745,-1.4029 4.8878,-1.3102 0.6355,3.9759 1.3828,2.9474 -1.8731,5.2364 z m -8.0034,-2.175 c 7.4634,4.1777 8.9193,10.6693 10.7655,13.2182 15.6843,-8.6181 2.9797,-14.0516 2.9123,-14.1273 -1.5747,-1.7643 -0.7498,-3.7899 -4.004,-4.6037 -3.5949,-0.8992 -8.2604,2.44 -9.6738,5.5128 z" />
    <path
       id="path8"
       style="fill:#2e2e2e;fill-rule:evenodd"
       d="m 578.5886,178.1263 c 2.1705,3.0416 1.741,1.334 1.8839,4.9691 -3.4962,2.5529 -4.1542,1.9738 -6.582,-1.8799 z m -13.6193,8.6219 c 5.4056,-0.5959 2.6058,-2.9781 7.3267,-3.3421 2.2819,5.8156 -3.1958,6.4369 -0.6511,10.5908 2.6203,-1.5335 2.3947,-3.4475 3.4874,-6.7076 3.1785,-0.3033 7.5234,0.2888 8.0246,-4.0694 0.3994,-3.4767 -3.1759,-8.4759 -5.633,-8.5425 -0.2662,-0.007 -12.1734,8.0844 -12.5546,12.0708 z" />
    <path
       id="path10"
       style="fill:#2e2e2e;fill-rule:evenodd"
       d="m 467.1731,111.4033 4.9068,1.8921 -0.2426,3.1249 c -2.5492,1.7788 -2.8245,1.2824 -6.0582,0.4201 z m -4.5371,14.9485 c 3.0257,-4.1933 0.0978,-5.4352 4.182,-6.9115 5.5493,4.0496 -1.0903,6.9693 5.7821,8.5975 l -1.7927,-7.7678 c 4.233,-3.0775 4.6721,-2.7748 3.8807,-8.4353 -3.4767,-2.3598 -5.679,-2.7737 -9.8538,-2.5067 -1.0474,3.763 -4.7262,13.7095 -2.1983,17.0238 z" />
    <path
       id="path12"
       style="fill:#2e2e2e;fill-rule:evenodd"
       d="m 255.0186,415.4924 c 4.0743,-0.7268 3.5195,-0.9705 5.7558,2.6062 -0.8989,2.4914 -0.7033,2.7176 -4.0077,3.4948 -2.1421,-2.6983 -2.6475,-2.7104 -1.7481,-6.101 z m 5.3124,-2.6399 c -11.0778,-0.9963 -10.093,6.3219 -3.6861,12.0855 3.7902,-1.7206 12.9917,-6.6838 13.5943,-10.5264 -6.3147,0.2021 -4.5969,4.9413 -7.4647,1.4664 -1.8403,-3.2236 3.3409,-5.3896 1.8703,-9.47 -2.8032,1.4306 -2.8324,3.1926 -4.3138,6.4445 z" />
    <path
       id="path14"
       style="fill:#2e2e2e;fill-rule:evenodd"
       d="m 586.6662,202.909 -2.2586,-3.4013 6.2348,-1.6574 z m -10.2487,-2.7714 c 2.2374,2.7471 0.8275,0.4329 5.8006,0.4113 5.055,7.8877 0.7787,3.5419 0.4697,9.5601 4.1343,-0.6009 11.5622,-10.3592 11.8488,-14.885 -4.424,-0.788 -15.5835,1.522 -18.1191,4.9136 z" />
    <path
       id="path16"
       style="fill:#2e2e2e;fill-rule:evenodd"
       d="m 250.5852,396.267 1.7915,3.314 -6.8714,1.0213 z m -8.7891,6.8273 c 3.6802,1.4213 15.6986,-0.637 18.7623,-2.9566 -4.5743,-3.9747 -4.4462,3.259 -7.9818,-6.0389 l 3.2663,-4.6789 c -5.2874,0.3439 -13.1266,8.6307 -14.0468,13.6744 z" />
    <path
       id="path18"
       style="fill:#2e2e2e;fill-rule:evenodd"
       d="m 605.6892,240.7071 -1.8323,-3.7812 6.7204,-0.6667 c -1.5741,2.742 -2.2306,2.0061 -4.8881,4.4479 z m -10.0012,-5.656 c 2.7468,5.7543 4.3946,-2.2249 7.0158,5.1075 1.2373,3.4605 -1.586,2.8958 -2.9509,7.0871 4.1142,-0.5405 14.0516,-7.9917 14.8142,-12.071 -2.8157,-2.2901 -15.4143,-2.0679 -18.8791,-0.1236 z" />
    <path
       id="path20"
       style="fill:#2e2e2e;fill-rule:evenodd"
       d="m 275.9553,177.1019 -4.1012,5.1383 c -2.5336,-2.2756 -3.323,-3.8749 -6.6035,-3.6266 1.1732,3.7414 10.2962,10.9828 14.0215,11.9783 -1.5712,-6.0327 -1.7756,-2.3261 -5.254,-6.7237 l 3.5016,-4.4368 c 4.1925,1.8745 3.4084,4.0257 7.8438,3.6844 -1.5046,-3.7805 -9.8963,-10.5684 -13.6755,-11.9565 0.1199,4.7463 0.3765,2.5767 4.2673,5.9426 z" />
    <path
       id="path22"
       style="fill:#2e2e2e;fill-rule:evenodd"
       d="m 446.7314,109.0511 c 0.9377,2.3955 1.5619,5.0955 0.9343,7.3899 l -3.3109,-0.4467 z m -6.9327,13.754 c 2.2884,-1.2067 1.7555,-1.6282 3.0484,-4.4048 l 5.6775,0.4791 c 1.8054,3.7281 -0.0477,3.6119 2.9868,5.0624 1.912,-3.6814 -0.9609,-15.5809 -3.8667,-18.4207 -4.686,2.4026 -9.1806,15.0769 -7.846,17.284 z" />
    <path
       id="path24"
       style="fill:#2e2e2e;fill-rule:evenodd"
       d="m 582.8448,417.0574 -3.2187,4.9108 c -3.0308,-1.3371 -4.7061,-3.3863 -7.5921,-3.7009 0.3575,3.2924 3.0365,4.3444 6.1127,6.4766 2.0738,1.4371 5.5854,4.4166 7.914,4.8747 0.2991,-4.388 -2.2039,-2.1433 -4.4294,-6.3278 l 3.0623,-4.2675 c 5.193,1.1347 1.3827,2.4426 6.7328,3.009 -0.4402,-4.6041 -10.114,-10.2292 -14.4088,-11.3057 1.7742,5.1295 0.713,1.5953 5.8272,6.3308 z" />
    <path
       id="path26"
       style="fill:#2e2e2e;fill-rule:evenodd"
       d="m 341.5808,126.1837 4.5277,5.1276 -4.0923,1.5607 z m -2.1368,-3.1388 c -1.1398,2.6042 -0.0238,10.1636 0.4484,13.7219 l 1.878,4.9077 c 2.1325,-3.6678 0.6987,-1.8122 1.2657,-6.221 l 4.6621,-2.0168 c 3.6578,3.4143 -0.1346,2.2527 5.3907,3.077 -2.0659,-5.754 -2.88,-4.4745 -6.4106,-8.4345 -2.7437,-3.0773 -3.3148,-6.5971 -7.2343,-5.0343 z" />
    <path
       id="path28"
       style="fill:#2e2e2e;fill-rule:evenodd"
       d="m 229.1797,360.5221 c 2.9418,-0.53 2.4199,-2.4939 6.4188,-3.363 l 0.9773,3.8217 z m -2.9478,1.9693 c 3.9841,1.2291 15.5407,2.5761 18.4763,-0.3116 -2.7046,-1.648 -2.1768,-0.8764 -5.6124,-1.5743 l -1.4042,-5.44 c 2.9131,-2.4205 3.5705,-1.2645 3.4772,-4.4654 -0.1352,0.017 -16.0835,6.1897 -14.9369,11.7913 z" />
    <path
       id="path30"
       style="fill:#2e2e2e;fill-rule:evenodd"
       d="m 236.2978,339.6353 -4.7183,0.9012 c -2.3865,-4.5491 0.5071,-3.1629 -2.9347,-6.7232 -1.6688,3.1648 -0.8056,3.1535 -0.2577,7.1866 l -4.337,0.62 -2.0021,-8.0844 c -2.8361,3.257 -1.29,3.2876 -0.6843,10.9698 5.7084,-0.6387 13.0136,-0.9822 17.7137,-3.3676 -0.1188,-3.7712 0.0944,-7.9736 -2.4327,-10.4919 -1.4312,2.5563 -0.2392,5.6064 -0.3469,8.9895 z" />
    <path
       id="path32"
       style="fill:#2e2e2e;fill-rule:evenodd"
       d="m 617.4176,370.1375 c -2.524,-3.6087 -9.885,-3.7148 -13.6868,-6.0006 l 0.642,-4.0502 c 4.7398,-1.8192 8.6321,1.7329 11.5912,2.1141 5.9856,0.7708 2.4664,0.0882 3.8755,-1.0633 -3.8826,-2.6291 -17.3191,-8.0237 -18.58,0.0326 -1.1199,7.1544 13.0879,11.0146 16.1581,8.9674 z" />
    <path
       id="path34"
       style="fill:#2e2e2e;fill-rule:evenodd"
       d="m 526.6449,147.8781 c -6.2694,0.9728 -4.0077,-1.8054 -6.0163,-5.343 -5.4133,5.0275 1.48,9.7951 7.973,7.5809 4.3801,-10.2084 -2.2144,-5.8711 -1.9485,-13.7106 4.6142,-1.2194 3.8622,1.4896 5.9598,4.5323 4.9547,-5.3152 -4.1525,-9.8436 -7.6586,-6.4998 -4.8623,4.6366 4.3248,7.9832 1.6906,13.4402 z" />
    <path
       id="path36"
       style="fill:#2e2e2e;fill-rule:evenodd"
       d="m 603.6806,255.1377 c -0.5051,2.8896 -0.3047,9.0856 2.9642,10.8918 1.5758,-3.1102 -0.5034,-4.2239 -0.3226,-8.9413 l 4.1477,-0.7404 c 2.6756,2.855 0.8243,2.7011 3.175,6.0709 2.009,-2.8323 0.6795,-1.8294 0.1273,-6.9545 l 4.5077,-0.9558 c 1.1568,3.816 0.464,6.0134 3.365,7.5968 1.1625,-2.4973 -0.6293,-7.4897 -2.0001,-10.2379 -5.2674,-0.07 -10.8134,1.9883 -15.9642,3.2704 z" />
    <path
       id="path38"
       style="fill:#2e2e2e;fill-rule:evenodd"
       d="m 593.6448,386.0728 c 2.4406,-2.1365 2.3318,-3.9796 3.9903,-6.9384 l 4.8586,1.1744 c -0.2392,4.3435 -2.7453,4.3733 -0.8489,7.5801 l 3.7014,-5.6919 4.0867,1.8374 -3.0795,7.7607 c 3.7956,-0.5474 2.3167,0.5573 4.1669,-3.8274 1.0253,-2.4295 1.457,-2.9831 1.7351,-5.5272 -4.6905,-2.403 -10.1767,-5.7456 -15.6107,-6.3893 -1.3473,1.8896 -1.5426,2.4352 -2.5333,4.6222 -1.7875,3.9461 -2.1572,2.7918 -0.4666,5.3994 z" />
    <path
       id="path40"
       style="fill:#2e2e2e;fill-rule:evenodd"
       d="m 366.9588,128.5926 -3.9073,1.0638 -5.9457,-13.9371 c -2.9798,4.2922 3.316,15.6943 3.3163,15.6946 0.1712,0.1256 13.1391,5.0318 7.7629,-10.7626 -1.2529,-3.6805 -0.6641,-5.9669 -3.5401,-7.3514 -2.2043,4.6483 3.4344,9.1063 2.3139,15.2927 z" />
    <path
       id="path42"
       style="fill:#2e2e2e;fill-rule:evenodd"
       d="m 235.6988,227.1376 c 3.041,4.0842 9.8498,3.2136 13.1975,7.8029 -2.2609,9.7538 -10.5309,-2.304 -16.4571,0.197 2.6051,3.9807 16.1649,9.9771 18.4578,2.8744 2.8194,-8.7344 -13.1059,-12.1675 -15.1982,-10.8743 z" />
    <path
       id="path44"
       style="fill:#2e2e2e;fill-rule:evenodd"
       d="m 316.5797,135.1375 8.1343,14.8552 c 3.295,-0.3557 8.7568,-3.0707 9.4116,-6.3144 -3.1257,0.0547 -5.2492,2.1883 -8.3279,3.2403 l -2.6784,-4.8385 c 4.1454,-2.1158 4.3676,-1.1061 5.8067,-5.2886 l -6.9964,2.8125 -2.5484,-3.278 c 3.189,-2.6912 5.7229,-2.5718 7.0906,-6.1236 -3.719,0.1502 -6.9905,2.3916 -9.8921,4.9351 z" />
    <path
       id="path46"
       style="fill:#2e2e2e;fill-rule:evenodd"
       d="m 621.3841,341.4161 c 1.082,6.4491 -0.5939,2.1807 -2.7884,6.8394 7.7913,0.2798 7.1914,-9.2188 1.8589,-9.8855 -6.8074,-0.8516 -4.9184,8.7959 -10.7016,5.7242 -3.03,-4.5448 0.43,-3.7723 3.0404,-6.7884 -6.5954,-3.5373 -8.7035,6.806 -4.6754,9.3779 7.9463,5.0734 6.2469,-6.2703 13.2661,-5.2676 z" />
    <path
       id="path48"
       style="fill:#2e2e2e;fill-rule:evenodd"
       d="m 240.9744,252.7648 c 2.2342,6.2575 -1.5798,3.8704 -4.0179,7.213 5.3422,3.2715 7.8217,-2.2459 7.0342,-7.9427 -7.0339,-6.1432 -8.6082,2.3406 -14.3458,3.2213 -2.3692,-4.8568 -0.0491,-3.6935 2.9349,-6.9026 -8.4432,-2.3278 -8.1036,8.0459 -3.5776,9.3682 7.4614,2.1804 5.0349,-7.1308 11.9722,-4.9572 z" />
    <path
       id="path50"
       style="fill:#2e2e2e;fill-rule:evenodd"
       d="m 242.0773,215.1377 14.328,8.2911 4.7265,-7.7556 c 0.7319,-4.8362 0.4887,-0.7019 -0.5468,-2.5495 l -4.5978,6.9931 -4.1777,-2.0963 c -0.1015,-4.2091 1.0551,-2.6523 2.1164,-7.3587 -4.4754,1.7881 -2.2145,2.0106 -5.2872,5.3229 l -3.5703,-1.8944 c 1.2187,-4.0167 2.4923,-3.9475 2.6521,-8.0544 -2.6708,1.2722 -0.1913,-0.5255 -1.9196,1.2209 z" />
    <path
       id="path52"
       style="fill:#2e2e2e;fill-rule:evenodd"
       d="m 240.0956,380.6297 c -2.0313,2.0426 -1.0902,1.5296 -4.3407,2.0449 -2.9015,-5.0459 -0.1885,-5.5689 -5.3912,-6.8831 0.8606,3.5448 2.1008,7.488 4.3886,10.1231 4.0451,-0.7962 14.5828,-3.884 15.6464,-7.49 -3.6235,-0.4175 -4.1618,0.5205 -7.7539,1.7887 -2.1699,-3.4835 -0.8767,-4.0031 -3.9999,-6.0866 -0.982,2.717 0.4906,5.4771 1.4507,6.503 z" />
    <path
       id="path54"
       style="fill:#2e2e2e;fill-rule:evenodd"
       d="m 588.164,220.1377 c 2.9807,1.3831 3.9804,-1.5142 8.47,-1.9326 2.2838,4.3597 0.6083,3.5305 4.4866,5.5165 -0.8883,-4.4374 -2.6949,-4.7087 -1.6234,-7.9597 l 2.3644,-1.1052 c 4.4093,2.7201 0.7155,3.8454 6.1509,6.9567 -0.525,-4.0861 -2.2728,-6.7524 -4.3676,-10.1406 -3.869,0.7611 -14.0579,4.9853 -15.4809,8.6649 z" />
    <path
       id="path56"
       style="fill:#2e2e2e;fill-rule:evenodd"
       d="m 219.2811,290.3893 c 2.1331,3.9201 4.1598,3.2519 7.342,5.7484 -3.1127,2.8191 -5.4683,1.8337 -8.0325,5 3.3531,1.88 4.2398,-0.2038 8.0869,-1.976 5.3918,-2.484 6.2618,-0.3382 10.1078,-2.0242 -3.2944,-3.3163 -3.8786,-0.2968 -9.3588,-3.8163 l -5.552,-3.4115 c -4.1853,-0.7934 -0.4589,-0.5981 -2.5934,0.4796 z" />
    <path
       id="path58"
       style="fill:#2e2e2e;fill-rule:evenodd"
       d="m 405.034,113.2673 c -3.8928,-3.5112 -2.8488,-6.2325 -7.4324,-7.1946 0.6327,3.8313 1.923,4.8527 4.0864,7.9688 3.2173,4.6338 1.3303,4.5998 2.9568,8.8798 3.8733,-1.5681 0.7163,-3.5212 2.251,-8.5581 1.3462,-4.4178 3.8523,-5.2889 2.5328,-9.8578 -2.5997,2.2873 -3.1383,5.3805 -4.3946,8.7619 z" />
    <path
       id="path60"
       style="fill:#2e2e2e;fill-rule:evenodd"
       d="m 609.8071,301.1377 c 3.6794,1.6827 4.5746,-0.254 9.1225,1.7629 4.4952,1.9936 3.3171,3.4943 8.7151,3.3667 -1.9664,-4.8277 -4.3206,-2.1396 -7.8917,-6.281 l 7.8747,-4.3974 c -3.2533,-2.3476 -5.0485,-0.1732 -8.5133,1.9375 -5.2384,3.191 -7.4378,0.5389 -9.3073,3.6113 z" />
    <path
       id="path62"
       style="fill:#2e2e2e;fill-rule:evenodd"
       d="m 546.592,148.748 c -3.5819,4.1508 -7.2301,8.4118 -8.9422,13.2115 4.4425,-1.6915 0.7441,1.4408 6.3731,-5.5591 1.785,-2.2195 2.5869,-3.5413 4.0499,-5.8969 4.2622,0.9451 -0.6795,1.9905 5.3716,1.3731 -1.0964,-3.7202 -6.1032,-7.2003 -9.8467,-7.7094 z" />
    <path
       id="path64"
       style="fill:#2e2e2e;fill-rule:evenodd"
       d="m 252.3495,197.4753 c 0.2685,-0.1179 0.6231,-0.6678 0.7574,-0.4467 1.1123,1.8309 1.198,-0.718 1.4794,-0.8476 6.6972,-3.0818 5.2804,4.6273 15.2963,6.281 -1.4692,-3.8474 -7.3097,-7.5742 -11.1934,-9.4445 0.1312,-1.4377 1.2078,-3.1844 -0.0445,-5.3991 -2.6039,2.5611 -5.8124,6.3093 -6.2952,9.8569 z" />
    <path
       id="path66"
       style="fill:#2e2e2e;fill-rule:evenodd"
       d="m 607.7313,276.1376 c -0.2647,3.7426 -0.0298,8.5121 1.9134,11.1946 1.8675,-3.1082 0.699,-4.8246 0.3186,-8.8161 4.8059,-1.3257 11.4517,-0.9147 15.0817,-3.3786 -1.9233,-1.3275 0.6344,-2.0749 -8.5252,-0.5899 -2.9463,0.4777 -5.8612,0.9389 -8.7885,1.59 z" />
    <path
       id="path68"
       style="fill:#2e2e2e;fill-rule:evenodd"
       d="m 585.3529,398.1376 c 1.7104,3.4021 6.7346,4.4807 12.2695,7.9946 -0.4587,3.2116 -1.417,2.8442 0.0224,5.0918 2.2442,-2.0829 5.627,-7.3712 5.4808,-10.5672 l -3.5411,3.1175 c -5.2015,-1.3961 -10.203,-7.4208 -14.2316,-5.6367 z" />
    <path
       id="path70"
       style="fill:#2e2e2e;fill-rule:evenodd"
       d="m 500.9743,139.7217 6.817,1.8198 c -1.7747,-5.699 -1.1412,-3.2561 1.4511,-8.9019 2.7624,-6.0168 0.5933,-3.3885 5.419,-6.3987 -2.361,-2.3932 -2.9894,-3.1498 -6.6648,-2.7331 0.3115,1.4182 2.5503,4.5669 -3.0586,11.9457 -3.85,5.0653 -0.9125,-1.6253 -3.9637,4.2682 z" />
    <path
       id="path72"
       style="fill:#2e2e2e;fill-rule:evenodd"
       d="m 484.71,115.3692 4.276,2.5847 c -1.2841,4.119 -5.6225,11.8301 -3.3412,14.8053 2.7043,-2.2323 4.3909,-9.6823 5.1951,-13.4895 l 5.4048,-0.9703 -5.9976,-2.9843 c -3.4662,-1.156 -2.8196,-1.5727 -5.5371,0.0541 z" />
    <path
       id="path74"
       style="fill:#2e2e2e;fill-rule:evenodd"
       d="m 376.134,111.1363 5.4785,0.7611 2.6864,14.3608 c 3.1946,-1.6979 2.0888,-2.658 1.2492,-6.7067 -0.7214,-3.4796 -1.2141,-4.7087 -1.2169,-8.2568 4.9819,-2.5886 1.9341,1.1316 3.7029,-3.46 -3.6493,0.5196 -9.5681,0.9108 -11.9001,3.3016 z" />
    <path
       id="path76"
       style="fill:#2e2e2e;fill-rule:evenodd"
       d="m 233.9031,318.6986 -14.7187,1.0285 c 1.7708,2.1648 -0.5003,2.4961 8.4632,1.9896 3.2054,-0.1811 5.6681,-0.2818 8.8891,-0.7305 l -0.195,-11.478 c -3.6094,2.8664 -2.0047,5.8841 -2.4386,9.1904 z" />
  </g>
</svg>
