<?xml version="1.0" encoding="UTF-8"?>
<svg xmlns="http://www.w3.org/2000/svg" xmlns:xlink="http://www.w3.org/1999/xlink" width="500pt" height="400pt" viewBox="0 0 1200 847" version="1.1">
<g id="surface1">
<path style=" stroke:none;fill-rule:evenodd;fill:rgb(39.607843%,39.607843%,39.607843%);fill-opacity:1;" d="M 510.097656 468.0625 C 508.132812 460.027344 509.398438 348.773438 509.398438 330.453125 C 509.398438 285.019531 503.988281 276.308594 523.882812 276.242188 C 543.554688 276.175781 559.691406 280.628906 572.09375 296.617188 C 612.359375 348.519531 598.199219 481.964844 510.097656 468.0625 Z M 646.226562 394.023438 C 642.253906 407.953125 638.277344 415.324219 632.550781 424.886719 C 621.738281 439.761719 620.527344 439.5625 609.617188 450.527344 C 647.003906 488.992188 734.925781 509.585938 734.199219 589.535156 C 733.894531 622.957031 715.164062 662.183594 676.949219 660.019531 C 667.628906 659.492188 653.476562 654.304688 646.316406 648.125 C 607.972656 615.0625 657.570312 545.742188 592.378906 488.476562 C 582.851562 480.109375 575.054688 478.792969 565.894531 472.808594 C 573.722656 469.5625 580.449219 469.261719 589.753906 464.382812 C 598.132812 459.988281 603.175781 455.414062 610.214844 449.929688 C 631.128906 428.535156 641.472656 411.363281 642.941406 381.75 C 644.554688 349.300781 633.296875 339.515625 652.632812 308.058594 C 687.75 250.921875 761.941406 305.496094 741.277344 335.585938 C 731.949219 339.421875 726.183594 337.265625 716.425781 344.769531 C 693.726562 362.226562 692.433594 395.824219 715.554688 413.855469 C 730.558594 425.554688 752.542969 424.03125 767.4375 412.832031 C 799.449219 388.757812 791.511719 310.976562 724.417969 283.8125 C 706.429688 276.53125 684.941406 276.816406 666.394531 281.835938 C 658.136719 284.070312 649.488281 287.496094 642.144531 291.898438 C 635.332031 295.984375 626.191406 304.078125 620.464844 306.621094 C 595.984375 265.050781 536.941406 271.332031 495.457031 271.332031 C 488.589844 271.332031 447.429688 269.183594 442.765625 273.511719 C 445.804688 279.683594 444.246094 273.878906 451.875 277.640625 L 451.851562 633.777344 C 444.230469 637.238281 445.761719 631.644531 442.703125 637.9375 C 446.933594 641.703125 448.039062 640.105469 459.824219 640.050781 L 499.730469 640.042969 C 513.898438 640.054688 514.4375 641.261719 518.660156 637.992188 C 515.042969 630.691406 510.40625 637.84375 509.4375 625.234375 C 508.949219 618.886719 509.398438 610.351562 509.398438 603.773438 L 509.441406 473.753906 C 596.726562 473.082031 572.761719 581.859375 582.15625 621.167969 C 590.449219 655.855469 619.289062 661.019531 649.773438 661.03125 C 663.710938 661.039062 692.835938 676.855469 737.8125 648 C 785.367188 617.492188 803.316406 541.855469 766.089844 497.175781 C 732.636719 457.023438 670.472656 441.785156 646.226562 394.023438 Z M 646.226562 394.023438 "/>
<path style=" stroke:none;fill-rule:evenodd;fill:rgb(39.607843%,39.607843%,39.607843%);fill-opacity:1;" d="M 408.144531 628.351562 C 403.6875 622.675781 395.851562 611.199219 389.867188 608.085938 C 394.0625 628.503906 453.226562 675.332031 472.863281 686.238281 C 553.535156 731.058594 648.621094 734.671875 728.863281 688.929688 C 742.082031 681.390625 765.5625 666.601562 775.898438 656.203125 C 786.265625 645.769531 810.058594 625.550781 814.367188 612.503906 C 807.148438 615.929688 798.777344 627.140625 793.316406 633.679688 C 775.238281 655.335938 748.941406 671.671875 726.207031 686.039062 C 691.179688 708.167969 639.085938 717.984375 598.070312 717.605469 C 554.882812 717.207031 510.773438 704.203125 473.710938 682.265625 C 454.195312 670.714844 421.386719 645.210938 408.144531 628.351562 Z M 408.144531 628.351562 "/>
<path style=" stroke:none;fill-rule:evenodd;fill:rgb(18.039216%,18.039216%,18.039216%);fill-opacity:1;" d="M 435.972656 219.480469 C 441.085938 215.757812 440.433594 213.859375 445.640625 218.046875 C 445.246094 223.234375 445.984375 222.035156 441.125 224.839844 Z M 434.511719 215.457031 C 431.4375 215.085938 430.457031 213.109375 430.214844 209.867188 C 432.382812 207.464844 433.882812 207.871094 437.179688 208.003906 C 438.085938 213.664062 439.152344 212.199219 434.511719 215.457031 Z M 423.105469 212.359375 C 433.742188 218.308594 435.816406 227.546875 438.449219 231.175781 C 460.800781 218.910156 442.695312 211.175781 442.597656 211.066406 C 440.355469 208.554688 441.53125 205.671875 436.894531 204.511719 C 431.769531 203.234375 425.121094 207.988281 423.105469 212.359375 Z M 423.105469 212.359375 "/>
<path style=" stroke:none;fill-rule:evenodd;fill:rgb(18.039216%,18.039216%,18.039216%);fill-opacity:1;" d="M 824.59375 253.566406 C 827.683594 257.898438 827.074219 255.46875 827.277344 260.640625 C 822.292969 264.277344 821.355469 263.453125 817.894531 257.964844 Z M 805.183594 265.839844 C 812.886719 264.992188 808.894531 261.601562 815.625 261.082031 C 818.875 269.363281 811.070312 270.246094 814.695312 276.160156 C 818.429688 273.976562 818.109375 271.253906 819.664062 266.613281 C 824.195312 266.179688 830.386719 267.023438 831.101562 260.820312 C 831.671875 255.871094 826.578125 248.753906 823.074219 248.660156 C 822.695312 248.648438 805.726562 260.167969 805.183594 265.839844 Z M 805.183594 265.839844 "/>
<path style=" stroke:none;fill-rule:evenodd;fill:rgb(18.039216%,18.039216%,18.039216%);fill-opacity:1;" d="M 665.804688 158.585938 L 672.796875 161.28125 L 672.453125 165.726562 C 668.820312 168.261719 668.425781 167.554688 663.816406 166.324219 Z M 659.339844 179.867188 C 663.652344 173.894531 659.476562 172.128906 665.296875 170.027344 C 673.207031 175.792969 663.746094 179.949219 673.539062 182.265625 L 670.984375 171.207031 C 677.015625 166.828125 677.644531 167.257812 676.515625 159.199219 C 671.558594 155.839844 668.421875 155.25 662.472656 155.632812 C 660.980469 160.988281 655.734375 175.148438 659.339844 179.867188 Z M 659.339844 179.867188 "/>
<path style=" stroke:none;fill-rule:evenodd;fill:rgb(18.039216%,18.039216%,18.039216%);fill-opacity:1;" d="M 363.445312 591.464844 C 369.253906 590.429688 368.460938 590.085938 371.648438 595.175781 C 370.367188 598.722656 370.648438 599.042969 365.9375 600.152344 C 362.886719 596.308594 362.164062 596.292969 363.445312 591.464844 Z M 371.019531 587.707031 C 355.230469 586.289062 356.632812 596.707031 365.765625 604.910156 C 371.167969 602.460938 384.28125 595.398438 385.140625 589.925781 C 376.140625 590.214844 378.585938 596.960938 374.5 592.015625 C 371.878906 587.425781 379.261719 584.34375 377.164062 578.535156 C 373.171875 580.570312 373.128906 583.078125 371.019531 587.707031 Z M 371.019531 587.707031 "/>
<path style=" stroke:none;fill-rule:evenodd;fill:rgb(18.039216%,18.039216%,18.039216%);fill-opacity:1;" d="M 836.105469 288.847656 L 832.886719 284.003906 L 841.769531 281.644531 Z M 821.496094 284.902344 C 824.6875 288.8125 822.675781 285.519531 829.765625 285.488281 C 836.96875 296.714844 830.875 290.527344 830.433594 299.097656 C 836.324219 298.242188 846.914062 284.351562 847.320312 277.90625 C 841.015625 276.785156 825.109375 280.074219 821.496094 284.902344 Z M 821.496094 284.902344 "/>
<path style=" stroke:none;fill-rule:evenodd;fill:rgb(18.039216%,18.039216%,18.039216%);fill-opacity:1;" d="M 357.128906 564.097656 L 359.683594 568.816406 L 349.890625 570.269531 Z M 344.601562 573.816406 C 349.847656 575.839844 366.976562 572.910156 371.34375 569.609375 C 364.824219 563.949219 365.003906 574.246094 359.964844 561.011719 L 364.621094 554.351562 C 357.085938 554.839844 345.914062 566.636719 344.601562 573.816406 Z M 344.601562 573.816406 "/>
<path style=" stroke:none;fill-rule:evenodd;fill:rgb(18.039216%,18.039216%,18.039216%);fill-opacity:1;" d="M 863.214844 342.652344 L 860.605469 337.269531 L 870.179688 336.320312 C 867.9375 340.226562 867.003906 339.175781 863.214844 342.652344 Z M 848.960938 334.601562 C 852.875 342.792969 855.222656 331.433594 858.960938 341.871094 C 860.722656 346.800781 856.699219 345.996094 854.753906 351.960938 C 860.617188 351.191406 874.78125 340.585938 875.867188 334.777344 C 871.855469 331.519531 853.898438 331.835938 848.960938 334.601562 Z M 848.960938 334.601562 "/>
<path style=" stroke:none;fill-rule:evenodd;fill:rgb(18.039216%,18.039216%,18.039216%);fill-opacity:1;" d="M 393.285156 252.109375 L 387.441406 259.425781 C 383.828125 256.183594 382.703125 253.910156 378.03125 254.261719 C 379.703125 259.585938 392.703125 269.894531 398.011719 271.3125 C 395.773438 262.726562 395.480469 268 390.523438 261.742188 L 395.515625 255.425781 C 401.488281 258.09375 400.371094 261.15625 406.695312 260.671875 C 404.550781 255.289062 392.589844 245.625 387.203125 243.648438 C 387.375 250.40625 387.742188 247.316406 393.285156 252.109375 Z M 393.285156 252.109375 "/>
<path style=" stroke:none;fill-rule:evenodd;fill:rgb(18.039216%,18.039216%,18.039216%);fill-opacity:1;" d="M 636.671875 155.238281 C 638.007812 158.648438 638.898438 162.492188 638.003906 165.757812 L 633.285156 165.121094 Z M 626.792969 174.816406 C 630.054688 173.097656 629.292969 172.5 631.136719 168.546875 L 639.226562 169.226562 C 641.800781 174.535156 639.160156 174.371094 643.484375 176.433594 C 646.210938 171.195312 642.113281 154.253906 637.972656 150.210938 C 631.296875 153.632812 624.890625 171.675781 626.792969 174.816406 Z M 626.792969 174.816406 "/>
<path style=" stroke:none;fill-rule:evenodd;fill:rgb(18.039216%,18.039216%,18.039216%);fill-opacity:1;" d="M 830.65625 593.695312 L 826.070312 600.683594 C 821.75 598.78125 819.363281 595.863281 815.25 595.414062 C 815.761719 600.101562 819.578125 601.601562 823.960938 604.636719 C 826.917969 606.679688 831.921875 610.921875 835.242188 611.574219 C 835.667969 605.328125 832.101562 608.523438 828.929688 602.566406 L 833.292969 596.492188 C 840.695312 598.105469 835.261719 599.96875 842.886719 600.777344 C 842.261719 594.222656 828.472656 586.214844 822.351562 584.679688 C 824.882812 591.984375 823.367188 586.953125 830.65625 593.695312 Z M 830.65625 593.695312 "/>
<path style=" stroke:none;fill-rule:evenodd;fill:rgb(18.039216%,18.039216%,18.039216%);fill-opacity:1;" d="M 486.8125 179.625 L 493.265625 186.925781 L 487.433594 189.148438 Z M 483.769531 175.15625 C 482.144531 178.863281 483.734375 189.625 484.40625 194.691406 L 487.082031 201.679688 C 490.121094 196.457031 488.078125 199.097656 488.886719 192.820312 L 495.53125 189.949219 C 500.746094 194.8125 495.339844 193.15625 503.214844 194.332031 C 500.269531 186.140625 499.109375 187.960938 494.078125 182.324219 C 490.167969 177.945312 489.355469 172.933594 483.769531 175.15625 Z M 483.769531 175.15625 "/>
<path style=" stroke:none;fill-rule:evenodd;fill:rgb(18.039216%,18.039216%,18.039216%);fill-opacity:1;" d="M 326.621094 513.214844 C 330.816406 512.460938 330.070312 509.664062 335.769531 508.425781 L 337.164062 513.867188 Z M 322.421875 516.015625 C 328.097656 517.765625 344.570312 519.683594 348.753906 515.574219 C 344.898438 513.226562 345.652344 514.324219 340.753906 513.332031 L 338.753906 505.589844 C 342.90625 502.144531 343.839844 503.789062 343.707031 499.230469 C 343.515625 499.257812 320.785156 508.042969 322.421875 516.015625 Z M 322.421875 516.015625 "/>
<path style=" stroke:none;fill-rule:evenodd;fill:rgb(18.039216%,18.039216%,18.039216%);fill-opacity:1;" d="M 336.765625 483.480469 L 330.042969 484.765625 C 326.640625 478.289062 330.765625 480.261719 325.859375 475.191406 C 323.480469 479.699219 324.710938 479.683594 325.492188 485.421875 L 319.3125 486.304688 L 316.457031 474.796875 C 312.414062 479.433594 314.621094 479.476562 315.484375 490.414062 C 323.617188 489.503906 334.03125 489.015625 340.726562 485.621094 C 340.558594 480.25 340.863281 474.269531 337.261719 470.683594 C 335.222656 474.324219 336.921875 478.664062 336.765625 483.480469 Z M 336.765625 483.480469 "/>
<path style=" stroke:none;fill-rule:evenodd;fill:rgb(18.039216%,18.039216%,18.039216%);fill-opacity:1;" d="M 879.929688 526.902344 C 876.332031 521.765625 865.84375 521.613281 860.425781 518.359375 L 861.339844 512.59375 C 868.09375 510.003906 873.640625 515.0625 877.859375 515.601562 C 886.390625 516.699219 881.375 515.730469 883.382812 514.089844 C 877.847656 510.347656 858.699219 502.667969 856.902344 514.136719 C 855.304688 524.320312 875.554688 529.816406 879.929688 526.902344 Z M 879.929688 526.902344 "/>
<path style=" stroke:none;fill-rule:evenodd;fill:rgb(18.039216%,18.039216%,18.039216%);fill-opacity:1;" d="M 750.5625 210.507812 C 741.628906 211.894531 744.851562 207.9375 741.988281 202.902344 C 734.273438 210.058594 744.097656 216.847656 753.351562 213.695312 C 759.59375 199.164062 750.195312 205.335938 750.574219 194.175781 C 757.152344 192.441406 756.078125 196.296875 759.066406 200.628906 C 766.128906 193.0625 753.148438 186.617188 748.152344 191.375 C 741.222656 197.976562 754.316406 202.742188 750.5625 210.507812 Z M 750.5625 210.507812 "/>
<path style=" stroke:none;fill-rule:evenodd;fill:rgb(18.039216%,18.039216%,18.039216%);fill-opacity:1;" d="M 860.351562 363.195312 C 859.632812 367.308594 859.917969 376.128906 864.578125 378.699219 C 866.824219 374.273438 863.859375 372.6875 864.117188 365.972656 L 870.027344 364.917969 C 873.839844 368.984375 871.203125 368.765625 874.554688 373.5625 C 877.417969 369.527344 875.523438 370.957031 874.734375 363.660156 L 881.160156 362.300781 C 882.808594 367.730469 881.820312 370.859375 885.953125 373.113281 C 887.613281 369.558594 885.058594 362.453125 883.105469 358.539062 C 875.597656 358.441406 867.691406 361.371094 860.351562 363.195312 Z M 860.351562 363.195312 "/>
<path style=" stroke:none;fill-rule:evenodd;fill:rgb(18.039216%,18.039216%,18.039216%);fill-opacity:1;" d="M 846.050781 549.585938 C 849.527344 546.542969 849.371094 543.921875 851.738281 539.707031 L 858.660156 541.378906 C 858.320312 547.5625 854.75 547.605469 857.449219 552.171875 L 862.726562 544.070312 L 868.550781 546.683594 L 864.160156 557.730469 C 869.570312 556.953125 867.464844 558.523438 870.101562 552.285156 C 871.5625 548.824219 872.175781 548.035156 872.574219 544.414062 C 865.886719 540.996094 858.070312 536.234375 850.324219 535.320312 C 848.40625 538.011719 848.125 538.785156 846.714844 541.898438 C 844.167969 547.515625 843.640625 545.875 846.050781 549.585938 Z M 846.050781 549.585938 "/>
<path style=" stroke:none;fill-rule:evenodd;fill:rgb(18.039216%,18.039216%,18.039216%);fill-opacity:1;" d="M 522.980469 183.054688 L 517.414062 184.570312 L 508.9375 164.730469 C 504.691406 170.839844 513.664062 187.070312 513.664062 187.070312 C 513.910156 187.25 532.390625 194.234375 524.730469 171.75 C 522.945312 166.511719 523.78125 163.257812 519.683594 161.285156 C 516.542969 167.902344 524.578125 174.25 522.980469 183.054688 Z M 522.980469 183.054688 "/>
<path style=" stroke:none;fill-rule:evenodd;fill:rgb(18.039216%,18.039216%,18.039216%);fill-opacity:1;" d="M 335.914062 323.335938 C 340.246094 329.152344 349.949219 327.910156 354.722656 334.445312 C 351.5 348.328125 339.714844 331.164062 331.265625 334.726562 C 334.980469 340.390625 354.304688 348.929688 357.574219 338.816406 C 361.589844 326.382812 338.894531 321.496094 335.914062 323.335938 Z M 335.914062 323.335938 "/>
<path style=" stroke:none;fill-rule:evenodd;fill:rgb(18.039216%,18.039216%,18.039216%);fill-opacity:1;" d="M 451.183594 192.371094 L 462.773438 213.519531 C 467.472656 213.011719 475.253906 209.148438 476.1875 204.53125 C 471.734375 204.609375 468.707031 207.644531 464.320312 209.144531 L 460.503906 202.253906 C 466.410156 199.242188 466.726562 200.679688 468.777344 194.726562 L 458.808594 198.730469 L 455.175781 194.0625 C 459.71875 190.234375 463.332031 190.402344 465.28125 185.347656 C 459.980469 185.5625 455.316406 188.75 451.183594 192.371094 Z M 451.183594 192.371094 "/>
<path style=" stroke:none;fill-rule:evenodd;fill:rgb(18.039216%,18.039216%,18.039216%);fill-opacity:1;" d="M 885.582031 486.015625 C 887.125 495.195312 884.738281 489.121094 881.609375 495.75 C 892.714844 496.148438 891.859375 482.628906 884.257812 481.679688 C 874.554688 480.46875 877.25 494.199219 869.007812 489.828125 C 864.6875 483.359375 869.621094 484.457031 873.339844 480.164062 C 863.941406 475.128906 860.9375 489.851562 866.675781 493.515625 C 878 500.738281 875.578125 484.589844 885.582031 486.015625 Z M 885.582031 486.015625 "/>
<path style=" stroke:none;fill-rule:evenodd;fill:rgb(18.039216%,18.039216%,18.039216%);fill-opacity:1;" d="M 343.429688 359.816406 C 346.617188 368.726562 341.179688 365.328125 337.707031 370.085938 C 345.320312 374.742188 348.851562 366.890625 347.730469 358.78125 C 337.707031 350.035156 335.460938 362.109375 327.285156 363.363281 C 323.910156 356.453125 327.214844 358.105469 331.46875 353.539062 C 319.433594 350.226562 319.917969 364.992188 326.367188 366.875 C 337.003906 369.980469 333.542969 356.722656 343.429688 359.816406 Z M 343.429688 359.816406 "/>
<path style=" stroke:none;fill-rule:evenodd;fill:rgb(18.039216%,18.039216%,18.039216%);fill-opacity:1;" d="M 345.003906 306.253906 L 365.421875 318.058594 L 372.160156 307.015625 C 373.203125 300.132812 372.855469 306.019531 371.378906 303.386719 L 364.828125 313.34375 L 358.875 310.359375 C 358.730469 304.367188 360.378906 306.582031 361.890625 299.882812 C 355.511719 302.429688 358.734375 302.746094 354.355469 307.460938 L 349.265625 304.765625 C 351.003906 299.046875 352.816406 299.144531 353.046875 293.296875 C 349.238281 295.109375 352.773438 292.550781 350.308594 295.035156 Z M 345.003906 306.253906 "/>
<path style=" stroke:none;fill-rule:evenodd;fill:rgb(18.039216%,18.039216%,18.039216%);fill-opacity:1;" d="M 342.179688 541.835938 C 339.285156 544.746094 340.625 544.015625 335.992188 544.75 C 331.859375 537.566406 335.722656 536.820312 328.308594 534.949219 C 329.535156 539.996094 331.304688 545.609375 334.5625 549.359375 C 340.328125 548.226562 355.347656 543.832031 356.863281 538.699219 C 351.699219 538.105469 350.929688 539.441406 345.8125 541.246094 C 342.71875 536.285156 344.5625 535.546875 340.113281 532.582031 C 338.710938 536.449219 340.8125 540.378906 342.179688 541.835938 Z M 342.179688 541.835938 "/>
<path style=" stroke:none;fill-rule:evenodd;fill:rgb(18.039216%,18.039216%,18.039216%);fill-opacity:1;" d="M 838.238281 313.371094 C 842.488281 315.339844 843.910156 311.21875 850.308594 310.621094 C 853.566406 316.828125 851.175781 315.648438 856.703125 318.472656 C 855.4375 312.15625 852.863281 311.769531 854.390625 307.144531 L 857.761719 305.570312 C 864.042969 309.441406 858.78125 311.042969 866.527344 315.472656 C 865.777344 309.65625 863.285156 305.859375 860.300781 301.039062 C 854.789062 302.121094 840.265625 308.132812 838.238281 313.371094 Z M 838.238281 313.371094 "/>
<path style=" stroke:none;fill-rule:evenodd;fill:rgb(18.039216%,18.039216%,18.039216%);fill-opacity:1;" d="M 312.515625 413.378906 C 315.554688 418.957031 318.441406 418.007812 322.976562 421.5625 C 318.542969 425.574219 315.183594 424.171875 311.53125 428.679688 C 316.308594 431.355469 317.574219 428.386719 323.054688 425.867188 C 330.738281 422.328125 331.980469 425.382812 337.460938 422.984375 C 332.765625 418.261719 331.933594 422.5625 324.125 417.550781 L 316.210938 412.695312 C 310.246094 411.566406 315.558594 411.84375 312.515625 413.378906 Z M 312.515625 413.378906 "/>
<path style=" stroke:none;fill-rule:evenodd;fill:rgb(18.039216%,18.039216%,18.039216%);fill-opacity:1;" d="M 577.246094 161.238281 C 571.699219 156.242188 573.1875 152.367188 566.652344 150.996094 C 567.554688 156.453125 569.394531 157.90625 572.476562 162.339844 C 577.0625 168.9375 574.371094 168.890625 576.691406 174.980469 C 582.210938 172.75 577.710938 169.96875 579.898438 162.800781 C 581.816406 156.511719 585.390625 155.269531 583.507812 148.765625 C 579.804688 152.023438 579.035156 156.425781 577.246094 161.238281 Z M 577.246094 161.238281 "/>
<path style=" stroke:none;fill-rule:evenodd;fill:rgb(18.039216%,18.039216%,18.039216%);fill-opacity:1;" d="M 869.082031 428.679688 C 874.328125 431.074219 875.601562 428.316406 882.085938 431.1875 C 888.492188 434.027344 886.8125 436.164062 894.503906 435.980469 C 891.703125 429.109375 888.347656 432.933594 883.257812 427.039062 L 894.480469 420.78125 C 889.84375 417.4375 887.285156 420.53125 882.347656 423.539062 C 874.882812 428.078125 871.75 424.304688 869.082031 428.679688 Z M 869.082031 428.679688 "/>
<path style=" stroke:none;fill-rule:evenodd;fill:rgb(18.039216%,18.039216%,18.039216%);fill-opacity:1;" d="M 778.992188 211.746094 C 773.886719 217.65625 768.6875 223.722656 766.246094 230.554688 C 772.578125 228.144531 767.308594 232.605469 775.328125 222.640625 C 777.875 219.480469 779.015625 217.597656 781.101562 214.246094 C 787.175781 215.589844 780.132812 217.078125 788.757812 216.199219 C 787.195312 210.90625 780.058594 205.949219 774.722656 205.226562 Z M 778.992188 211.746094 "/>
<path style=" stroke:none;fill-rule:evenodd;fill:rgb(18.039216%,18.039216%,18.039216%);fill-opacity:1;" d="M 359.644531 281.113281 C 360.027344 280.945312 360.53125 280.160156 360.722656 280.476562 C 362.308594 283.082031 362.429688 279.453125 362.832031 279.269531 C 372.375 274.882812 370.355469 285.855469 384.628906 288.210938 C 382.535156 282.734375 374.214844 277.429688 368.679688 274.765625 C 368.863281 272.71875 370.398438 270.234375 368.613281 267.082031 C 364.902344 270.726562 360.332031 276.0625 359.644531 281.113281 Z M 359.644531 281.113281 "/>
<path style=" stroke:none;fill-rule:evenodd;fill:rgb(18.039216%,18.039216%,18.039216%);fill-opacity:1;" d="M 866.125 393.089844 C 865.75 398.417969 866.082031 405.207031 868.851562 409.027344 C 871.515625 404.601562 869.847656 402.15625 869.304688 396.476562 C 876.15625 394.589844 885.628906 395.171875 890.800781 391.667969 C 888.058594 389.777344 891.703125 388.710938 878.652344 390.828125 C 874.453125 391.507812 870.296875 392.164062 866.125 393.089844 Z M 866.125 393.089844 "/>
<path style=" stroke:none;fill-rule:evenodd;fill:rgb(18.039216%,18.039216%,18.039216%);fill-opacity:1;" d="M 834.230469 566.761719 C 836.667969 571.605469 843.832031 573.140625 851.71875 578.140625 C 851.066406 582.714844 849.699219 582.191406 851.75 585.390625 C 854.949219 582.425781 859.769531 574.894531 859.5625 570.347656 L 854.515625 574.785156 C 847.101562 572.796875 839.972656 564.222656 834.230469 566.761719 Z M 834.230469 566.761719 "/>
<path style=" stroke:none;fill-rule:evenodd;fill:rgb(18.039216%,18.039216%,18.039216%);fill-opacity:1;" d="M 713.976562 198.898438 L 723.691406 201.488281 C 721.164062 193.375 722.066406 196.851562 725.761719 188.816406 C 729.699219 180.25 726.605469 183.992188 733.484375 179.707031 C 730.121094 176.300781 729.222656 175.222656 723.984375 175.816406 C 724.429688 177.835938 727.621094 182.316406 719.625 192.820312 C 714.140625 200.03125 718.324219 190.507812 713.976562 198.898438 Z M 713.976562 198.898438 "/>
<path style=" stroke:none;fill-rule:evenodd;fill:rgb(18.039216%,18.039216%,18.039216%);fill-opacity:1;" d="M 690.796875 164.230469 L 696.890625 167.910156 C 695.0625 173.773438 688.878906 184.75 692.128906 188.988281 C 695.984375 185.808594 698.386719 175.203125 699.535156 169.785156 L 707.238281 168.402344 L 698.691406 164.15625 C 693.75 162.507812 694.671875 161.914062 690.796875 164.230469 Z M 690.796875 164.230469 "/>
<path style=" stroke:none;fill-rule:evenodd;fill:rgb(18.039216%,18.039216%,18.039216%);fill-opacity:1;" d="M 536.058594 158.207031 L 543.867188 159.289062 L 547.695312 179.730469 C 552.246094 177.316406 550.671875 175.949219 549.476562 170.183594 C 548.445312 165.230469 547.746094 163.480469 547.742188 158.429688 C 554.839844 154.746094 550.496094 160.042969 553.019531 153.507812 C 547.816406 154.246094 539.382812 154.800781 536.058594 158.207031 Z M 536.058594 158.207031 "/>
<path style=" stroke:none;fill-rule:evenodd;fill:rgb(18.039216%,18.039216%,18.039216%);fill-opacity:1;" d="M 333.355469 453.675781 L 312.375 455.140625 C 314.902344 458.222656 311.664062 458.695312 324.4375 457.972656 C 329.007812 457.714844 332.515625 457.570312 337.105469 456.933594 L 336.828125 440.59375 C 331.683594 444.675781 333.972656 448.96875 333.355469 453.675781 Z M 333.355469 453.675781 "/>
</g>
</svg>
